<?xml version="1.0" standalone="no"?>
<!DOCTYPE svg PUBLIC "-//W3C//DTD SVG 20010904//EN"
 "http://www.w3.org/TR/2001/REC-SVG-20010904/DTD/svg10.dtd">
<svg version="1.0" xmlns="http://www.w3.org/2000/svg"
 width="278.000000pt" height="110.000000pt" viewBox="0 0 278.000000 110.000000"
 preserveAspectRatio="xMidYMid meet">

<g transform="translate(0.000000,110.000000) scale(0.100000,-0.100000)"
fill="#000000" stroke="none">
<path d="M151 936 c-9 -11 -10 -20 -4 -28 13 -16 26 -365 14 -372 -6 -4 -24
-243 -26 -356 0 -9 9 -15 25 -15 25 0 25 0 32 125 4 69 5 142 2 163 -3 21 -2
43 4 50 17 21 19 75 11 221 -5 77 -6 149 -3 160 5 16 13 17 73 11 36 -4 82
-16 101 -26 90 -51 126 -200 80 -335 -21 -60 -57 -103 -131 -154 -64 -45 -120
-104 -117 -125 5 -32 34 -30 54 4 10 17 43 47 73 68 117 81 149 122 175 222
20 78 20 112 0 197 -13 60 -40 108 -83 154 -22 23 -87 39 -181 46 -72 6 -87 4
-99 -10z"/>
<path d="M1444 889 c-23 -7 -36 -20 -54 -58 -20 -43 -22 -59 -17 -119 4 -42 3
-82 -4 -101 l-11 -31 -71 3 c-59 2 -72 -1 -75 -14 -3 -18 41 -30 111 -31 l39
0 -6 -46 c-10 -78 -11 -86 -24 -122 -13 -36 -65 -80 -96 -80 -24 0 -58 19 -74
42 -17 23 -52 24 -52 1 1 -47 86 -101 137 -88 40 9 113 54 113 68 0 7 7 25 15
41 8 16 18 59 21 96 6 58 10 69 28 74 30 8 101 7 110 -1 4 -4 32 -8 62 -9 41
-1 57 2 61 13 13 34 -31 44 -183 44 l-61 -1 4 108 c6 139 14 160 69 174 31 9
44 17 44 30 0 20 -32 23 -86 7z"/>
<path d="M851 800 c-13 -11 -29 -20 -36 -20 -21 0 -99 -99 -128 -163 -39 -83
-37 -159 4 -235 33 -61 83 -112 110 -112 9 0 23 8 32 18 32 36 12 79 -22 48
-16 -15 -19 -14 -38 7 -42 45 -63 96 -63 153 0 54 1 56 23 49 47 -14 113 -22
149 -18 29 4 42 14 61 42 14 20 28 50 31 66 4 17 14 54 23 83 12 41 13 58 5
77 -10 22 -17 25 -69 25 -43 -1 -64 -6 -82 -20z m104 -31 c4 -5 2 -22 -4 -37
-6 -15 -13 -40 -16 -57 -18 -91 -30 -105 -90 -104 -100 2 -122 28 -80 91 36
52 47 62 105 92 51 26 76 31 85 15z"/>
<path d="M1796 636 c-21 -22 -48 -71 -70 -129 -41 -104 -52 -154 -42 -191 6
-23 11 -26 53 -26 42 0 50 4 89 46 l43 46 7 -37 c7 -37 23 -51 48 -42 12 5 12
14 0 64 -7 32 -11 75 -7 95 4 30 -1 50 -26 99 -17 33 -31 67 -31 74 0 7 -7 18
-15 25 -13 11 -21 7 -49 -24z m47 -176 c5 -20 -2 -35 -34 -73 -42 -49 -79 -62
-79 -28 0 20 44 150 63 186 9 18 12 16 27 -20 9 -22 20 -51 23 -65z"/>
<path d="M2457 623 c-4 -3 -7 -39 -7 -78 l0 -72 -32 -9 c-23 -7 -33 -16 -33
-29 0 -17 6 -20 37 -17 30 2 38 -1 44 -20 4 -13 6 -37 5 -55 -1 -17 5 -42 13
-56 9 -13 13 -26 10 -30 -4 -3 5 -12 19 -18 23 -11 30 -9 62 20 20 17 40 31
45 31 6 0 10 9 10 20 0 24 -23 26 -64 5 -16 -9 -31 -14 -33 -11 -2 2 -7 27
-12 55 -7 46 -6 53 12 62 11 6 34 9 52 6 34 -6 97 11 117 31 22 22 -5 35 -49
23 -22 -6 -57 -10 -79 -9 -21 1 -47 -2 -56 -6 -16 -7 -18 0 -18 78 0 77 -2 86
-18 86 -10 0 -22 -3 -25 -7z"/>
<path d="M2260 605 c-7 -8 -10 -43 -9 -88 3 -63 -1 -81 -25 -130 -29 -60 -69
-91 -109 -85 -21 3 -22 7 -23 131 -1 81 -5 132 -13 140 -23 23 -34 -12 -39
-130 -7 -168 7 -192 107 -183 39 3 85 35 103 71 l16 34 7 -30 c12 -51 14 -55
36 -55 20 0 21 3 14 72 -4 39 -11 85 -16 102 -5 17 -9 59 -9 92 0 64 -16 88
-40 59z"/>
</g>
</svg>
