<svg xmlns="http://www.w3.org/2000/svg" xmlns:xlink="http://www.w3.org/1999/xlink" xmlns:lucid="lucid" viewBox="772.5 952.5 715 515"><g transform="translate(0 0)" lucid:page-tab-id="0_0"><path d="M780 966c0-3.3 2.7-6 6-6h103c3.3 0 6 2.7 6 6v8c0 3.3-1.9 7.9-4.24 10.24l-1.52 1.52C886.9 988.1 882.3 990 879 990h-93c-3.3 0-6-2.7-6-6z" fill="#fff" style="--darkreader-inline-fill: #e8e6e3;" data-darkreader-inline-fill=""/><path d="M895 960v20l-10 10H780" stroke="#5e5e5e" stroke-width="3" fill="none" style="--darkreader-inline-stroke: #ada59b;" data-darkreader-inline-stroke=""/><path d="M780 966c0-3.3 2.7-6 6-6h688c3.3 0 6 2.7 6 6v488c0 3.3-2.7 6-6 6H786c-3.3 0-6-2.7-6-6z" stroke="#5e5e5e" stroke-width="3" fill="none" style="--darkreader-inline-stroke: #ada59b;" data-darkreader-inline-stroke=""/><use xlink:href="#a" transform="matrix(1,0,0,1,788,960) translate(0 18.6)"/><defs><path d="M30 0v-248h33v221h125V0H30" id="b"/><path d="M100-194c62-1 85 37 85 99 1 63-27 99-86 99S16-35 15-95c0-66 28-99 85-99zM99-20c44 1 53-31 53-75 0-43-8-75-51-75s-53 32-53 75 10 74 51 75" id="c"/><path d="M115-194c55 1 70 41 70 98S169 2 115 4C84 4 66-9 55-30l1 105H24l-1-265h31l2 30c10-21 28-34 59-34zm-8 174c40 0 45-34 45-75s-6-73-45-74c-42 0-51 32-51 76 0 43 10 73 51 73" id="d"/><g id="a"><use transform="matrix(0.05,0,0,0.05,0,0)" xlink:href="#b"/><use transform="matrix(0.05,0,0,0.05,10,0)" xlink:href="#c"/><use transform="matrix(0.05,0,0,0.05,20,0)" xlink:href="#c"/><use transform="matrix(0.05,0,0,0.05,30,0)" xlink:href="#d"/></g></defs></g></svg>