<svg xmlns="http://www.w3.org/2000/svg" xmlns:lucid="lucid" viewBox="1012.5 582.5 95 173"><g lucid:page-tab-id="0_0"><path d="M1079.75 609.75c0 10.9-8.84 19.75-19.75 19.75-10.9 0-19.75-8.84-19.75-19.75 0-10.9 8.84-19.75 19.75-19.75 10.9 0 19.75 8.84 19.75 19.75z" stroke="#5e5e5e" stroke-width="3" fill="#fff" style="--darkreader-inline-fill: #e8e6e3; --darkreader-inline-stroke: #ada59b;" data-darkreader-inline-fill="" data-darkreader-inline-stroke=""/><path d="M1060 629.5v49.3c0 3.3 1.44 8.27 3.2 11.07L1100 748m-40-63.2l-40 63.2m0-98.75h80" stroke="#5e5e5e" stroke-width="3" fill="none" style="--darkreader-inline-stroke: #ada59b;" data-darkreader-inline-stroke=""/><path d="M1020 596c0-3.3 2.7-6 6-6h68c3.3 0 6 2.7 6 6v168c0 3.3-2.7 6-6 6h-68c-3.3 0-6-2.7-6-6z" fill="none"/></g></svg>